<svg width="24" height="24" viewBox="0 0 24 24" fill="none" xmlns="http://www.w3.org/2000/svg">
<path d="M12 24C18.6274 24 24 18.6274 24 12C24 5.37258 18.6274 0 12 0C5.37258 0 0 5.37258 0 12C0 18.6274 5.37258 24 12 24Z" fill="#1B9DF0"/>
<path d="M9.80481 18.3301C15.1268 18.3301 18.0368 13.9201 18.0368 10.0981C18.0368 9.97212 18.0368 9.84612 18.0308 9.72612C18.5948 9.31812 19.0868 8.80812 19.4768 8.22612C18.9608 8.45412 18.4028 8.61012 17.8148 8.68212C18.4148 8.32212 18.8708 7.75812 19.0868 7.08012C18.5288 7.41012 17.9108 7.65012 17.2508 7.78212C16.7228 7.21812 15.9728 6.87012 15.1388 6.87012C13.5428 6.87012 12.2468 8.16612 12.2468 9.76212C12.2468 9.99012 12.2708 10.2121 12.3248 10.4221C9.91881 10.3021 7.78881 9.15012 6.36081 7.39812C6.11481 7.82412 5.97081 8.32212 5.97081 8.85012C5.97081 9.85212 6.48081 10.7401 7.26081 11.2561C6.78681 11.2441 6.34281 11.1121 5.95281 10.8961C5.95281 10.9081 5.95281 10.9201 5.95281 10.9321C5.95281 12.3361 6.94881 13.5001 8.27481 13.7701C8.03481 13.8361 7.77681 13.8721 7.51281 13.8721C7.32681 13.8721 7.14681 13.8541 6.96681 13.8181C7.33281 14.9701 8.40081 15.8041 9.66681 15.8281C8.67681 16.6021 7.42881 17.0641 6.07281 17.0641C5.83881 17.0641 5.61081 17.0521 5.38281 17.0221C6.64881 17.8501 8.17281 18.3301 9.80481 18.3301Z" fill="white"/>
</svg>
